<?xml version="1.0" encoding="UTF-8"?>
<svg xmlns="http://www.w3.org/2000/svg" width="2400" height="1050" viewBox="0 0 2400 1050" role="img" aria-label="Structured LLM rationale evaluation pipeline for forecasting">
  <defs>
    <filter id="cardShadow" x="-12%" y="-12%" width="124%" height="140%">
      <feDropShadow dx="0" dy="8" stdDeviation="12" flood-color="#0F172A" flood-opacity="0.09"/>
    </filter>
    <filter id="depthShadow" x="-20%" y="-40%" width="145%" height="190%">
      <feDropShadow dx="0" dy="10" stdDeviation="12" flood-color="#0F172A" flood-opacity="0.12"/>
    </filter>
    <marker id="smallArrow" markerWidth="8" markerHeight="8" refX="7" refY="4" orient="auto" markerUnits="strokeWidth">
      <path d="M 0 0 L 8 4 L 0 8 z" fill="#C9D3DF"/>
    </marker>
    <linearGradient id="headerGrad" x1="0" x2="1">
      <stop offset="0%" stop-color="#152238"/>
      <stop offset="100%" stop-color="#2556A8"/>
    </linearGradient>
  </defs>

  <rect x="0" y="0" width="2400" height="1050" rx="0" fill="#FBFCFE" stroke="none" stroke-width="0" />
  <rect x="64" y="50" width="2272" height="960" rx="34" fill="#FFFFFF" stroke="#E5EBF2" stroke-width="2" />

  
  <g opacity="0.22">
    
    <g filter="url(#depthShadow)">
      <polygon points="126.0,562.0 446.0,562.0 480.3,543.5 160.3,543.5" fill="#4b7cce" stroke="rgba(255,255,255,0.35)" stroke-width="1"/>
      <polygon points="446.0,562.0 446.0,586.0 480.3,567.5 480.3,543.5" fill="#093a8c" stroke="none" stroke-width="0"/>
      <polygon points="126.0,586.0 446.0,586.0 480.3,567.5 160.3,567.5" fill="#00287a" stroke="none" stroke-width="0"/>
      <polygon points="126.0,562.0 446.0,562.0 446.0,586.0 126.0,586.0" fill="#2556A8" stroke="none" stroke-width="0"/>
    </g>
  
    
    <g filter="url(#depthShadow)">
      <polygon points="588.0,562.0 908.0,562.0 942.3,543.5 622.3,543.5" fill="#329c94" stroke="rgba(255,255,255,0.35)" stroke-width="1"/>
      <polygon points="908.0,562.0 908.0,586.0 942.3,567.5 942.3,543.5" fill="#005a52" stroke="none" stroke-width="0"/>
      <polygon points="588.0,586.0 908.0,586.0 942.3,567.5 622.3,567.5" fill="#004840" stroke="none" stroke-width="0"/>
      <polygon points="588.0,562.0 908.0,562.0 908.0,586.0 588.0,586.0" fill="#0C766E" stroke="none" stroke-width="0"/>
    </g>
  
    
    <g filter="url(#depthShadow)">
      <polygon points="1050.0,562.0 1370.0,562.0 1404.3,543.5 1084.3,543.5" fill="#cd893e" stroke="rgba(255,255,255,0.35)" stroke-width="1"/>
      <polygon points="1370.0,562.0 1370.0,586.0 1404.3,567.5 1404.3,543.5" fill="#8b4700" stroke="none" stroke-width="0"/>
      <polygon points="1050.0,586.0 1370.0,586.0 1404.3,567.5 1084.3,567.5" fill="#793500" stroke="none" stroke-width="0"/>
      <polygon points="1050.0,562.0 1370.0,562.0 1370.0,586.0 1050.0,586.0" fill="#A76318" stroke="none" stroke-width="0"/>
    </g>
  
    
    <g filter="url(#depthShadow)">
      <polygon points="1512.0,562.0 1832.0,562.0 1866.3,543.5 1546.3,543.5" fill="#8b6cc9" stroke="rgba(255,255,255,0.35)" stroke-width="1"/>
      <polygon points="1832.0,562.0 1832.0,586.0 1866.3,567.5 1866.3,543.5" fill="#492a87" stroke="none" stroke-width="0"/>
      <polygon points="1512.0,586.0 1832.0,586.0 1866.3,567.5 1546.3,567.5" fill="#371875" stroke="none" stroke-width="0"/>
      <polygon points="1512.0,562.0 1832.0,562.0 1832.0,586.0 1512.0,586.0" fill="#6546A3" stroke="none" stroke-width="0"/>
    </g>
  
    
    <g filter="url(#depthShadow)">
      <polygon points="1974.0,562.0 2254.0,562.0 2288.3,543.5 2008.3,543.5" fill="#d96060" stroke="rgba(255,255,255,0.35)" stroke-width="1"/>
      <polygon points="2254.0,562.0 2254.0,586.0 2288.3,567.5 2288.3,543.5" fill="#971e1e" stroke="none" stroke-width="0"/>
      <polygon points="1974.0,586.0 2254.0,586.0 2288.3,567.5 2008.3,567.5" fill="#850c0c" stroke="none" stroke-width="0"/>
      <polygon points="1974.0,562.0 2254.0,562.0 2254.0,586.0 1974.0,586.0" fill="#B33A3A" stroke="none" stroke-width="0"/>
    </g>
  
  </g>

  <g>
    <g filter="url(#cardShadow)">
      <rect x="100" y="120" width="392" height="438" rx="22" fill="#EAF1FF" stroke="#D7DFEA" stroke-width="2" />
      <rect x="100" y="120" width="12" height="438" rx="6" fill="#2556A8" stroke="none" stroke-width="0" />
    </g>
    <rect x="134" y="150" width="54" height="34" rx="17" fill="#2556A8" stroke="none" stroke-width="0" />
    <text x="161" y="174" text-anchor="middle" font-family="Inter, Arial, Helvetica, sans-serif" font-size="20" font-weight="850" fill="#FFFFFF"><tspan x="161" dy="0">01</tspan></text>
    <text x="206" y="175" text-anchor="start" font-family="Inter, Arial, Helvetica, sans-serif" font-size="29" font-weight="850" fill="#152238"><tspan x="206" dy="0">Data</tspan></text>
    <text x="134" y="214" text-anchor="start" font-family="Inter, Arial, Helvetica, sans-serif" font-size="18" font-weight="600" fill="#64748B"><tspan x="134" dy="0">Resolved binary questions from the</tspan><tspan x="134" dy="22.5">forecasting corpus.</tspan></text>
  
        <rect x="134" y="272" width="324" height="42" rx="12" fill="#FFFFFF" stroke="#E1E8F0" stroke-width="1.5" />
        <rect x="148" y="284" width="18" height="18" rx="9" fill="#2556A8" stroke="none" stroke-width="0" />
        <text x="180" y="299" text-anchor="start" font-family="Inter, Arial, Helvetica, sans-serif" font-size="17" font-weight="750" fill="#2B3440"><tspan x="180" dy="0">Metaculus-style questions</tspan></text>
        <text x="450" y="299" text-anchor="end" font-family="Inter, Arial, Helvetica, sans-serif" font-size="17" font-weight="850" fill="#2556A8"><tspan x="450" dy="0">1,580</tspan></text>
      
        <rect x="134" y="330" width="324" height="42" rx="12" fill="#FFFFFF" stroke="#E1E8F0" stroke-width="1.5" />
        <rect x="148" y="342" width="18" height="18" rx="9" fill="#2F7D4E" stroke="none" stroke-width="0" />
        <text x="180" y="357" text-anchor="start" font-family="Inter, Arial, Helvetica, sans-serif" font-size="17" font-weight="750" fill="#2B3440"><tspan x="180" dy="0">Yes outcomes</tspan></text>
        <text x="450" y="357" text-anchor="end" font-family="Inter, Arial, Helvetica, sans-serif" font-size="17" font-weight="850" fill="#2F7D4E"><tspan x="450" dy="0">556</tspan></text>
      
        <rect x="134" y="388" width="324" height="42" rx="12" fill="#FFFFFF" stroke="#E1E8F0" stroke-width="1.5" />
        <rect x="148" y="400" width="18" height="18" rx="9" fill="#B33A3A" stroke="none" stroke-width="0" />
        <text x="180" y="415" text-anchor="start" font-family="Inter, Arial, Helvetica, sans-serif" font-size="17" font-weight="750" fill="#2B3440"><tspan x="180" dy="0">No outcomes</tspan></text>
        <text x="450" y="415" text-anchor="end" font-family="Inter, Arial, Helvetica, sans-serif" font-size="17" font-weight="850" fill="#B33A3A"><tspan x="450" dy="0">1,024</tspan></text>
      
        <rect x="134" y="446" width="324" height="42" rx="12" fill="#FFFFFF" stroke="#E1E8F0" stroke-width="1.5" />
        <rect x="148" y="458" width="18" height="18" rx="9" fill="#2556A8" stroke="none" stroke-width="0" />
        <text x="180" y="473" text-anchor="start" font-family="Inter, Arial, Helvetica, sans-serif" font-size="17" font-weight="750" fill="#2B3440"><tspan x="180" dy="0">News articles/question</tspan></text>
        <text x="450" y="473" text-anchor="end" font-family="Inter, Arial, Helvetica, sans-serif" font-size="17" font-weight="850" fill="#2556A8"><tspan x="450" dy="0">3</tspan></text>
      </g><g>
    <g filter="url(#cardShadow)">
      <rect x="562" y="120" width="392" height="438" rx="22" fill="#E7F6F3" stroke="#D7DFEA" stroke-width="2" />
      <rect x="562" y="120" width="12" height="438" rx="6" fill="#0C766E" stroke="none" stroke-width="0" />
    </g>
    <rect x="596" y="150" width="54" height="34" rx="17" fill="#0C766E" stroke="none" stroke-width="0" />
    <text x="623" y="174" text-anchor="middle" font-family="Inter, Arial, Helvetica, sans-serif" font-size="20" font-weight="850" fill="#FFFFFF"><tspan x="623" dy="0">02</tspan></text>
    <text x="668" y="175" text-anchor="start" font-family="Inter, Arial, Helvetica, sans-serif" font-size="29" font-weight="850" fill="#152238"><tspan x="668" dy="0">Prompt Design</tspan></text>
    <text x="596" y="214" text-anchor="start" font-family="Inter, Arial, Helvetica, sans-serif" font-size="18" font-weight="600" fill="#64748B"><tspan x="596" dy="0">Baseline plus controlled rationale</tspan><tspan x="596" dy="22.5">interventions.</tspan></text>
  
        <rect x="596" y="294" width="324" height="42" rx="12" fill="#FFFFFF" stroke="#E1E8F0" stroke-width="1.5" />
        <rect x="610" y="306" width="18" height="18" rx="9" fill="#0C766E" stroke="none" stroke-width="0" />
        <text x="642" y="321" text-anchor="start" font-family="Inter, Arial, Helvetica, sans-serif" font-size="17" font-weight="750" fill="#2B3440"><tspan x="642" dy="0">Neutral baseline</tspan></text>
        <text x="912" y="321" text-anchor="end" font-family="Inter, Arial, Helvetica, sans-serif" font-size="17" font-weight="850" fill="#0C766E"><tspan x="912" dy="0">V0</tspan></text>
      
        <rect x="596" y="352" width="324" height="42" rx="12" fill="#FFFFFF" stroke="#E1E8F0" stroke-width="1.5" />
        <rect x="610" y="364" width="18" height="18" rx="9" fill="#0C766E" stroke="none" stroke-width="0" />
        <text x="642" y="379" text-anchor="start" font-family="Inter, Arial, Helvetica, sans-serif" font-size="17" font-weight="750" fill="#2B3440"><tspan x="642" dy="0">Structured variants</tspan></text>
        <text x="912" y="379" text-anchor="end" font-family="Inter, Arial, Helvetica, sans-serif" font-size="17" font-weight="850" fill="#0C766E"><tspan x="912" dy="0">V1-V8</tspan></text>
      
        <rect x="596" y="410" width="324" height="42" rx="12" fill="#FFFFFF" stroke="#E1E8F0" stroke-width="1.5" />
        <rect x="610" y="422" width="18" height="18" rx="9" fill="#0C766E" stroke="none" stroke-width="0" />
        <text x="642" y="437" text-anchor="start" font-family="Inter, Arial, Helvetica, sans-serif" font-size="17" font-weight="750" fill="#2B3440"><tspan x="642" dy="0">Forecast components</tspan></text>
        <text x="912" y="437" text-anchor="end" font-family="Inter, Arial, Helvetica, sans-serif" font-size="17" font-weight="850" fill="#0C766E"><tspan x="912" dy="0">8</tspan></text>
      </g><g>
    <g filter="url(#cardShadow)">
      <rect x="1024" y="120" width="392" height="438" rx="22" fill="#FFF3DE" stroke="#D7DFEA" stroke-width="2" />
      <rect x="1024" y="120" width="12" height="438" rx="6" fill="#A76318" stroke="none" stroke-width="0" />
    </g>
    <rect x="1058" y="150" width="54" height="34" rx="17" fill="#A76318" stroke="none" stroke-width="0" />
    <text x="1085" y="174" text-anchor="middle" font-family="Inter, Arial, Helvetica, sans-serif" font-size="20" font-weight="850" fill="#FFFFFF"><tspan x="1085" dy="0">03</tspan></text>
    <text x="1130" y="175" text-anchor="start" font-family="Inter, Arial, Helvetica, sans-serif" font-size="29" font-weight="850" fill="#152238"><tspan x="1130" dy="0">Generation</tspan></text>
    <text x="1058" y="214" text-anchor="start" font-family="Inter, Arial, Helvetica, sans-serif" font-size="18" font-weight="600" fill="#64748B"><tspan x="1058" dy="0">Model and decoding sweep over</tspan><tspan x="1058" dy="22.5">every prompt condition.</tspan></text>
  
        <rect x="1058" y="294" width="324" height="42" rx="12" fill="#FFFFFF" stroke="#E1E8F0" stroke-width="1.5" />
        <rect x="1072" y="306" width="18" height="18" rx="9" fill="#A76318" stroke="none" stroke-width="0" />
        <text x="1104" y="321" text-anchor="start" font-family="Inter, Arial, Helvetica, sans-serif" font-size="17" font-weight="750" fill="#2B3440"><tspan x="1104" dy="0">Target models</tspan></text>
        <text x="1374" y="321" text-anchor="end" font-family="Inter, Arial, Helvetica, sans-serif" font-size="17" font-weight="850" fill="#A76318"><tspan x="1374" dy="0">3</tspan></text>
      
        <rect x="1058" y="352" width="324" height="42" rx="12" fill="#FFFFFF" stroke="#E1E8F0" stroke-width="1.5" />
        <rect x="1072" y="364" width="18" height="18" rx="9" fill="#A76318" stroke="none" stroke-width="0" />
        <text x="1104" y="379" text-anchor="start" font-family="Inter, Arial, Helvetica, sans-serif" font-size="17" font-weight="750" fill="#2B3440"><tspan x="1104" dy="0">Temperatures</tspan></text>
        <text x="1374" y="379" text-anchor="end" font-family="Inter, Arial, Helvetica, sans-serif" font-size="17" font-weight="850" fill="#A76318"><tspan x="1374" dy="0">6</tspan></text>
      
        <rect x="1058" y="410" width="324" height="42" rx="12" fill="#FFFFFF" stroke="#E1E8F0" stroke-width="1.5" />
        <rect x="1072" y="422" width="18" height="18" rx="9" fill="#A76318" stroke="none" stroke-width="0" />
        <text x="1104" y="437" text-anchor="start" font-family="Inter, Arial, Helvetica, sans-serif" font-size="17" font-weight="750" fill="#2B3440"><tspan x="1104" dy="0">Prompt conditions</tspan></text>
        <text x="1374" y="437" text-anchor="end" font-family="Inter, Arial, Helvetica, sans-serif" font-size="17" font-weight="850" fill="#A76318"><tspan x="1374" dy="0">9</tspan></text>
      </g><g>
    <g filter="url(#cardShadow)">
      <rect x="1486" y="120" width="392" height="438" rx="22" fill="#F2EDFF" stroke="#D7DFEA" stroke-width="2" />
      <rect x="1486" y="120" width="12" height="438" rx="6" fill="#6546A3" stroke="none" stroke-width="0" />
    </g>
    <rect x="1520" y="150" width="54" height="34" rx="17" fill="#6546A3" stroke="none" stroke-width="0" />
    <text x="1547" y="174" text-anchor="middle" font-family="Inter, Arial, Helvetica, sans-serif" font-size="20" font-weight="850" fill="#FFFFFF"><tspan x="1547" dy="0">04</tspan></text>
    <text x="1592" y="175" text-anchor="start" font-family="Inter, Arial, Helvetica, sans-serif" font-size="29" font-weight="850" fill="#152238"><tspan x="1592" dy="0">Outputs</tspan></text>
    <text x="1520" y="214" text-anchor="start" font-family="Inter, Arial, Helvetica, sans-serif" font-size="18" font-weight="600" fill="#64748B"><tspan x="1520" dy="0">Each run emits a forecast and</tspan><tspan x="1520" dy="22.5">explanation fields.</tspan></text>
  
        <rect x="1520" y="272" width="324" height="42" rx="12" fill="#FFFFFF" stroke="#E1E8F0" stroke-width="1.5" />
        <rect x="1534" y="284" width="18" height="18" rx="9" fill="#6546A3" stroke="none" stroke-width="0" />
        <text x="1566" y="299" text-anchor="start" font-family="Inter, Arial, Helvetica, sans-serif" font-size="17" font-weight="750" fill="#2B3440"><tspan x="1566" dy="0">Binary prediction</tspan></text>
        <text x="1836" y="299" text-anchor="end" font-family="Inter, Arial, Helvetica, sans-serif" font-size="17" font-weight="850" fill="#6546A3"><tspan x="1836" dy="0">yes/no</tspan></text>
      
        <rect x="1520" y="330" width="324" height="42" rx="12" fill="#FFFFFF" stroke="#E1E8F0" stroke-width="1.5" />
        <rect x="1534" y="342" width="18" height="18" rx="9" fill="#6546A3" stroke="none" stroke-width="0" />
        <text x="1566" y="357" text-anchor="start" font-family="Inter, Arial, Helvetica, sans-serif" font-size="17" font-weight="750" fill="#2B3440"><tspan x="1566" dy="0">Probability estimate</tspan></text>
        <text x="1836" y="357" text-anchor="end" font-family="Inter, Arial, Helvetica, sans-serif" font-size="17" font-weight="850" fill="#6546A3"><tspan x="1836" dy="0">p</tspan></text>
      
        <rect x="1520" y="388" width="324" height="42" rx="12" fill="#FFFFFF" stroke="#E1E8F0" stroke-width="1.5" />
        <rect x="1534" y="400" width="18" height="18" rx="9" fill="#6546A3" stroke="none" stroke-width="0" />
        <text x="1566" y="415" text-anchor="start" font-family="Inter, Arial, Helvetica, sans-serif" font-size="17" font-weight="750" fill="#2B3440"><tspan x="1566" dy="0">Natural rationale</tspan></text>
        <text x="1836" y="415" text-anchor="end" font-family="Inter, Arial, Helvetica, sans-serif" font-size="17" font-weight="850" fill="#6546A3"><tspan x="1836" dy="0">text</tspan></text>
      
        <rect x="1520" y="446" width="324" height="42" rx="12" fill="#FFFFFF" stroke="#E1E8F0" stroke-width="1.5" />
        <rect x="1534" y="458" width="18" height="18" rx="9" fill="#6546A3" stroke="none" stroke-width="0" />
        <text x="1566" y="473" text-anchor="start" font-family="Inter, Arial, Helvetica, sans-serif" font-size="17" font-weight="750" fill="#2B3440"><tspan x="1566" dy="0">Variant component</tspan></text>
        <text x="1836" y="473" text-anchor="end" font-family="Inter, Arial, Helvetica, sans-serif" font-size="17" font-weight="850" fill="#6546A3"><tspan x="1836" dy="0">field</tspan></text>
      </g><g>
    <g filter="url(#cardShadow)">
      <rect x="1948" y="120" width="352" height="438" rx="22" fill="#FFF0F0" stroke="#D7DFEA" stroke-width="2" />
      <rect x="1948" y="120" width="12" height="438" rx="6" fill="#B33A3A" stroke="none" stroke-width="0" />
    </g>
    <rect x="1982" y="150" width="54" height="34" rx="17" fill="#B33A3A" stroke="none" stroke-width="0" />
    <text x="2009" y="174" text-anchor="middle" font-family="Inter, Arial, Helvetica, sans-serif" font-size="20" font-weight="850" fill="#FFFFFF"><tspan x="2009" dy="0">05</tspan></text>
    <text x="2054" y="175" text-anchor="start" font-family="Inter, Arial, Helvetica, sans-serif" font-size="29" font-weight="850" fill="#152238"><tspan x="2054" dy="0">Evaluation</tspan></text>
    <text x="1982" y="214" text-anchor="start" font-family="Inter, Arial, Helvetica, sans-serif" font-size="18" font-weight="600" fill="#64748B"><tspan x="1982" dy="0">Reliability, explanation quality,</tspan><tspan x="1982" dy="22.5">and attribution analysis.</tspan></text>
  
        <rect x="1982" y="272" width="284" height="42" rx="12" fill="#FFFFFF" stroke="#E1E8F0" stroke-width="1.5" />
        <rect x="1996" y="284" width="18" height="18" rx="9" fill="#B33A3A" stroke="none" stroke-width="0" />
        <text x="2028" y="299" text-anchor="start" font-family="Inter, Arial, Helvetica, sans-serif" font-size="17" font-weight="750" fill="#2B3440"><tspan x="2028" dy="0">Accuracy</tspan></text>
        
      
        <rect x="1982" y="330" width="284" height="42" rx="12" fill="#FFFFFF" stroke="#E1E8F0" stroke-width="1.5" />
        <rect x="1996" y="342" width="18" height="18" rx="9" fill="#B33A3A" stroke="none" stroke-width="0" />
        <text x="2028" y="357" text-anchor="start" font-family="Inter, Arial, Helvetica, sans-serif" font-size="17" font-weight="750" fill="#2B3440"><tspan x="2028" dy="0">Brier score</tspan></text>
        
      
        <rect x="1982" y="388" width="284" height="42" rx="12" fill="#FFFFFF" stroke="#E1E8F0" stroke-width="1.5" />
        <rect x="1996" y="400" width="18" height="18" rx="9" fill="#B33A3A" stroke="none" stroke-width="0" />
        <text x="2028" y="415" text-anchor="start" font-family="Inter, Arial, Helvetica, sans-serif" font-size="17" font-weight="750" fill="#2B3440"><tspan x="2028" dy="0">ECE</tspan></text>
        
      
        <rect x="1982" y="446" width="284" height="42" rx="12" fill="#FFFFFF" stroke="#E1E8F0" stroke-width="1.5" />
        <rect x="1996" y="458" width="18" height="18" rx="9" fill="#B33A3A" stroke="none" stroke-width="0" />
        <text x="2028" y="473" text-anchor="start" font-family="Inter, Arial, Helvetica, sans-serif" font-size="17" font-weight="750" fill="#2B3440"><tspan x="2028" dy="0">LLM-judge scores</tspan></text>
        
      </g>
  <path d="M 506 339 L 548 339" fill="none" stroke="#C9D3DF" stroke-width="4" stroke-linecap="round" marker-end="url(#smallArrow)"/><path d="M 968 339 L 1010 339" fill="none" stroke="#C9D3DF" stroke-width="4" stroke-linecap="round" marker-end="url(#smallArrow)"/><path d="M 1430 339 L 1472 339" fill="none" stroke="#C9D3DF" stroke-width="4" stroke-linecap="round" marker-end="url(#smallArrow)"/><path d="M 1892 339 L 1934 339" fill="none" stroke="#C9D3DF" stroke-width="4" stroke-linecap="round" marker-end="url(#smallArrow)"/>

  <text x="560" y="620" text-anchor="start" font-family="Inter, Arial, Helvetica, sans-serif" font-size="25" font-weight="850" fill="#152238"><tspan x="560" dy="0">Rationale interventions beside the neutral baseline</tspan></text>
  
    <g>
      <rect x="560" y="646" width="270" height="42" rx="21" fill="#FFFFFF" stroke="#0C766E" stroke-width="1.8" />
      <text x="695" y="673" text-anchor="middle" font-family="Inter, Arial, Helvetica, sans-serif" font-size="17" font-weight="760" fill="#0C766E"><tspan x="695" dy="0">V1  Predicted event</tspan></text>
    </g>
  
    <g>
      <rect x="880" y="646" width="270" height="42" rx="21" fill="#FFFFFF" stroke="#0C766E" stroke-width="1.8" />
      <text x="1015" y="673" text-anchor="middle" font-family="Inter, Arial, Helvetica, sans-serif" font-size="17" font-weight="760" fill="#0C766E"><tspan x="1015" dy="0">V2  Key attribute</tspan></text>
    </g>
  
    <g>
      <rect x="1200" y="646" width="270" height="42" rx="21" fill="#FFFFFF" stroke="#0C766E" stroke-width="1.8" />
      <text x="1335" y="673" text-anchor="middle" font-family="Inter, Arial, Helvetica, sans-serif" font-size="17" font-weight="760" fill="#0C766E"><tspan x="1335" dy="0">V3  Reasoning type</tspan></text>
    </g>
  
    <g>
      <rect x="1520" y="646" width="270" height="42" rx="21" fill="#FFFFFF" stroke="#0C766E" stroke-width="1.8" />
      <text x="1655" y="673" text-anchor="middle" font-family="Inter, Arial, Helvetica, sans-serif" font-size="17" font-weight="760" fill="#0C766E"><tspan x="1655" dy="0">V4  Credibility</tspan></text>
    </g>
  
    <g>
      <rect x="560" y="704" width="270" height="42" rx="21" fill="#FFFFFF" stroke="#0C766E" stroke-width="1.8" />
      <text x="695" y="731" text-anchor="middle" font-family="Inter, Arial, Helvetica, sans-serif" font-size="17" font-weight="760" fill="#0C766E"><tspan x="695" dy="0">V5  Key conditions</tspan></text>
    </g>
  
    <g>
      <rect x="880" y="704" width="270" height="42" rx="21" fill="#FFFFFF" stroke="#0C766E" stroke-width="1.8" />
      <text x="1015" y="731" text-anchor="middle" font-family="Inter, Arial, Helvetica, sans-serif" font-size="17" font-weight="760" fill="#0C766E"><tspan x="1015" dy="0">V6  Step-by-step</tspan></text>
    </g>
  
    <g>
      <rect x="1200" y="704" width="270" height="42" rx="21" fill="#FFFFFF" stroke="#0C766E" stroke-width="1.8" />
      <text x="1335" y="731" text-anchor="middle" font-family="Inter, Arial, Helvetica, sans-serif" font-size="17" font-weight="760" fill="#0C766E"><tspan x="1335" dy="0">V7  Uncertainty</tspan></text>
    </g>
  
    <g>
      <rect x="1520" y="704" width="270" height="42" rx="21" fill="#FFFFFF" stroke="#0C766E" stroke-width="1.8" />
      <text x="1655" y="731" text-anchor="middle" font-family="Inter, Arial, Helvetica, sans-serif" font-size="17" font-weight="760" fill="#0C766E"><tspan x="1655" dy="0">V8  Temporal anchors</tspan></text>
    </g>
  

  
    <g filter="url(#cardShadow)">
      <rect x="100" y="810" width="660" height="174" rx="20" fill="#EAF1FF" stroke="#D7DFEA" stroke-width="2" />
      <rect x="126" y="838" width="42" height="42" rx="12" fill="#2556A8" stroke="none" stroke-width="0" />
      <text x="147" y="867" text-anchor="middle" font-family="Inter, Arial, Helvetica, sans-serif" font-size="28" font-weight="850" fill="#FFFFFF"><tspan x="147" dy="0">+</tspan></text>
      <text x="186" y="866" text-anchor="start" font-family="Inter, Arial, Helvetica, sans-serif" font-size="25" font-weight="850" fill="#152238"><tspan x="186" dy="0">Forecast Reliability</tspan></text>
      <text x="126" y="908" text-anchor="start" font-family="Inter, Arial, Helvetica, sans-serif" font-size="17" font-weight="560" fill="#2B3440"><tspan x="126" dy="0">Accuracy, Brier score, and expected calibration error</tspan><tspan x="126" dy="21.08">are computed against resolved labels.</tspan></text>
    </g>
  
  
    <g filter="url(#cardShadow)">
      <rect x="870" y="810" width="660" height="174" rx="20" fill="#F2EDFF" stroke="#D7DFEA" stroke-width="2" />
      <rect x="896" y="838" width="42" height="42" rx="12" fill="#6546A3" stroke="none" stroke-width="0" />
      <text x="917" y="867" text-anchor="middle" font-family="Inter, Arial, Helvetica, sans-serif" font-size="28" font-weight="850" fill="#FFFFFF"><tspan x="917" dy="0">+</tspan></text>
      <text x="956" y="866" text-anchor="start" font-family="Inter, Arial, Helvetica, sans-serif" font-size="25" font-weight="850" fill="#152238"><tspan x="956" dy="0">Rationale Quality</tspan></text>
      <text x="896" y="908" text-anchor="start" font-family="Inter, Arial, Helvetica, sans-serif" font-size="17" font-weight="560" fill="#2B3440"><tspan x="896" dy="0">Gemma-4-31B-it and Kimi-K2.5 judge plausibility,</tspan><tspan x="896" dy="21.08">completeness, source consistency, non-hallucination,</tspan><tspan x="896" dy="21.08">informativeness, and conciseness.</tspan></text>
    </g>
  
  
    <g filter="url(#cardShadow)">
      <rect x="1640" y="810" width="660" height="174" rx="20" fill="#EAF7EF" stroke="#D7DFEA" stroke-width="2" />
      <rect x="1666" y="838" width="42" height="42" rx="12" fill="#2F7D4E" stroke="none" stroke-width="0" />
      <text x="1687" y="867" text-anchor="middle" font-family="Inter, Arial, Helvetica, sans-serif" font-size="28" font-weight="850" fill="#FFFFFF"><tspan x="1687" dy="0">+</tspan></text>
      <text x="1726" y="866" text-anchor="start" font-family="Inter, Arial, Helvetica, sans-serif" font-size="25" font-weight="850" fill="#152238"><tspan x="1726" dy="0">Diagnostic Attribution</tspan></text>
      <text x="1666" y="908" text-anchor="start" font-family="Inter, Arial, Helvetica, sans-serif" font-size="17" font-weight="560" fill="#2B3440"><tspan x="1666" dy="0">SHAP models estimate which judged rationale attributes</tspan><tspan x="1666" dy="21.08">are most predictive of forecast correctness.</tspan></text>
    </g>
  
</svg>
